<svg width="20" height="19" viewBox="0 0 20 19" fill="none" xmlns="http://www.w3.org/2000/svg">
<path d="M17 4H14V3C14 2.20435 13.6839 1.44129 13.1213 0.87868C12.5587 0.316071 11.7956 0 11 0H9C8.20435 0 7.44129 0.316071 6.87868 0.87868C6.31607 1.44129 6 2.20435 6 3V4H3C2.20435 4 1.44129 4.31607 0.87868 4.87868C0.316071 5.44129 0 6.20435 0 7V16C0 16.7956 0.316071 17.5587 0.87868 18.1213C1.44129 18.6839 2.20435 19 3 19H17C17.7956 19 18.5587 18.6839 19.1213 18.1213C19.6839 17.5587 20 16.7956 20 16V7C20 6.20435 19.6839 5.44129 19.1213 4.87868C18.5587 4.31607 17.7956 4 17 4ZM8 3C8 2.73478 8.10536 2.48043 8.29289 2.29289C8.48043 2.10536 8.73478 2 9 2H11C11.2652 2 11.5196 2.10536 11.7071 2.29289C11.8946 2.48043 12 2.73478 12 3V4H8V3ZM18 16C18 16.2652 17.8946 16.5196 17.7071 16.7071C17.5196 16.8946 17.2652 17 17 17H3C2.73478 17 2.48043 16.8946 2.29289 16.7071C2.10536 16.5196 2 16.2652 2 16V10.5C2.97544 10.8869 3.97818 11.2011 5 11.44V12.03C5 12.2952 5.10536 12.5496 5.29289 12.7371C5.48043 12.9246 5.73478 13.03 6 13.03C6.26522 13.03 6.51957 12.9246 6.70711 12.7371C6.89464 12.5496 7 12.2952 7 12.03V11.82C7.99435 11.9554 8.99649 12.0255 10 12.03C11.0035 12.0255 12.0057 11.9554 13 11.82V12.03C13 12.2952 13.1054 12.5496 13.2929 12.7371C13.4804 12.9246 13.7348 13.03 14 13.03C14.2652 13.03 14.5196 12.9246 14.7071 12.7371C14.8946 12.5496 15 12.2952 15 12.03V11.44C16.0218 11.2011 17.0246 10.8869 18 10.5V16ZM18 8.31C17.0274 8.72049 16.0244 9.05483 15 9.31V9C15 8.73478 14.8946 8.48043 14.7071 8.29289C14.5196 8.10536 14.2652 8 14 8C13.7348 8 13.4804 8.10536 13.2929 8.29289C13.1054 8.48043 13 8.73478 13 9V9.74C11.0113 10.04 8.98875 10.04 7 9.74V9C7 8.73478 6.89464 8.48043 6.70711 8.29289C6.51957 8.10536 6.26522 8 6 8C5.73478 8 5.48043 8.10536 5.29289 8.29289C5.10536 8.48043 5 8.73478 5 9V9.33C3.97562 9.07483 2.9726 8.74049 2 8.33V7C2 6.73478 2.10536 6.48043 2.29289 6.29289C2.48043 6.10536 2.73478 6 3 6H17C17.2652 6 17.5196 6.10536 17.7071 6.29289C17.8946 6.48043 18 6.73478 18 7V8.31Z" fill="#971563"/>
</svg>
