<svg width="21" height="21" viewBox="0 0 21 21" fill="none" xmlns="http://www.w3.org/2000/svg">
<path d="M19.708 13.5779L15.188 9.06793C15.2826 8.60731 15.3295 8.13817 15.328 7.66793C15.3277 6.37858 15.0023 5.11013 14.3819 3.97981C13.7616 2.8495 12.8663 1.89381 11.7789 1.20107C10.6915 0.508337 9.44693 0.100916 8.16035 0.0164701C6.87377 -0.0679761 5.58666 0.173277 4.418 0.71793C4.26994 0.785568 4.14062 0.888329 4.04129 1.01729C3.94196 1.14625 3.87561 1.29751 3.848 1.45793C3.8205 1.61632 3.83159 1.779 3.88034 1.93219C3.92908 2.08538 4.01403 2.22456 4.128 2.33793L8.478 6.67793L6.678 8.47793L2.338 4.12793C2.22367 4.01573 2.08405 3.93264 1.93091 3.88566C1.77777 3.83867 1.61558 3.82916 1.458 3.85793C1.29858 3.88453 1.14798 3.94936 1.01911 4.04689C0.890229 4.14442 0.78691 4.27174 0.718 4.41793C0.171525 5.59044 -0.0695185 6.88211 0.0172919 8.1728C0.104102 9.46348 0.515946 10.7112 1.21451 11.8C1.91308 12.8888 2.87567 13.7832 4.01274 14.4C5.14981 15.0168 6.42442 15.336 7.718 15.3279C8.18824 15.3294 8.65738 15.2825 9.118 15.1879L13.628 19.7079C13.721 19.8017 13.8316 19.8761 13.9534 19.9268C14.0753 19.9776 14.206 20.0037 14.338 20.0037C14.47 20.0037 14.6007 19.9776 14.7226 19.9268C14.8444 19.8761 14.955 19.8017 15.048 19.7079C15.1417 19.615 15.2161 19.5044 15.2669 19.3825C15.3177 19.2606 15.3438 19.1299 15.3438 18.9979C15.3438 18.8659 15.3177 18.7352 15.2669 18.6134C15.2161 18.4915 15.1417 18.3809 15.048 18.2879L10.148 13.3879C10.0255 13.2663 9.8737 13.1784 9.70723 13.1329C9.54076 13.0873 9.36532 13.0856 9.198 13.1279C8.71517 13.2572 8.21783 13.3244 7.718 13.3279C6.97005 13.3345 6.22818 13.1931 5.53514 12.9117C4.8421 12.6303 4.21157 12.2146 3.67989 11.6885C3.14821 11.1624 2.72587 10.5363 2.43722 9.84628C2.14856 9.15624 1.99929 8.41591 1.998 7.66793C1.9967 7.33295 2.02346 6.99845 2.078 6.66793L5.998 10.5979C6.09096 10.6917 6.20156 10.7661 6.32342 10.8168C6.44528 10.8676 6.57599 10.8937 6.708 10.8937C6.84001 10.8937 6.97072 10.8676 7.09258 10.8168C7.21444 10.7661 7.32504 10.6917 7.418 10.5979L10.598 7.38793C10.7782 7.20146 10.879 6.95227 10.879 6.69293C10.879 6.43359 10.7782 6.1844 10.598 5.99793L6.708 2.07793C7.03858 2.02394 7.37304 1.99719 7.708 1.99793C9.21004 2.00058 10.6497 2.59912 11.7108 3.66217C12.772 4.72521 13.368 6.16588 13.368 7.66793C13.3645 8.16776 13.2973 8.6651 13.168 9.14793C13.1257 9.31525 13.1274 9.49069 13.1729 9.65716C13.2185 9.82363 13.3064 9.97548 13.428 10.0979L18.328 14.9979C18.5163 15.1862 18.7717 15.292 19.038 15.292C19.3043 15.292 19.5597 15.1862 19.748 14.9979C19.9363 14.8096 20.0421 14.5542 20.0421 14.2879C20.0421 14.0216 19.9363 13.7662 19.748 13.5779H19.708Z" fill="white"/>
</svg>
