<svg width="20" height="20" viewBox="0 0 20 20" fill="none" xmlns="http://www.w3.org/2000/svg">
<path d="M17 0H3C2.20435 0 1.44129 0.316071 0.87868 0.87868C0.316071 1.44129 0 2.20435 0 3V17C0 17.7956 0.316071 18.5587 0.87868 19.1213C1.44129 19.6839 2.20435 20 3 20H17C17.7956 20 18.5587 19.6839 19.1213 19.1213C19.6839 18.5587 20 17.7956 20 17V3C20 2.20435 19.6839 1.44129 19.1213 0.87868C18.5587 0.316071 17.7956 0 17 0ZM18 17C18 17.2652 17.8946 17.5196 17.7071 17.7071C17.5196 17.8946 17.2652 18 17 18H3C2.73478 18 2.48043 17.8946 2.29289 17.7071C2.10536 17.5196 2 17.2652 2 17V3C2 2.73478 2.10536 2.48043 2.29289 2.29289C2.48043 2.10536 2.73478 2 3 2H17C17.2652 2 17.5196 2.10536 17.7071 2.29289C17.8946 2.48043 18 2.73478 18 3V17ZM15.7348 5H9C8.73478 5 8.48043 5.10536 8.29289 5.29289C8.10536 5.48043 8 5.73478 8 6C8 6.26522 8.10536 6.51957 8.29289 6.70711C8.48043 6.89464 8.73478 7 9 7H15.7348C16 7 16.2544 6.89464 16.4419 6.70711C16.6294 6.51957 16.7348 6.26522 16.7348 6C16.7348 5.73478 16.6294 5.48043 16.4419 5.29289C16.2544 5.10536 16 5 15.7348 5Z" fill="white"/>
<path d="M9 9H15.7347C16 9 16.2543 9.10536 16.4418 9.29289C16.6294 9.48043 16.7347 9.73478 16.7347 10C16.7347 10.2652 16.6294 10.5196 16.4418 10.7071C16.2543 10.8946 16 11 15.7347 11H9C8.73478 11 8.48043 10.8946 8.29289 10.7071C8.10536 10.5196 8 10.2652 8 10C8 9.73478 8.10536 9.48043 8.29289 9.29289C8.48043 9.10536 8.73478 9 9 9Z" fill="white"/>
<path d="M9 13H15.7347C16 13 16.2543 13.1054 16.4418 13.2929C16.6294 13.4804 16.7347 13.7348 16.7347 14C16.7347 14.2652 16.6294 14.5196 16.4418 14.7071C16.2543 14.8946 16 15 15.7347 15H9C8.73478 15 8.48043 14.8946 8.29289 14.7071C8.10536 14.5196 8 14.2652 8 14C8 13.7348 8.10536 13.4804 8.29289 13.2929C8.48043 13.1054 8.73478 13 9 13Z" fill="white"/>
<path d="M4.95134 6.96211C4.90569 6.9371 4.86426 6.90046 4.82944 6.85428L4.11017 5.90845C4.03963 5.81569 4 5.68988 4 5.55869C4 5.42751 4.03963 5.3017 4.11017 5.20893C4.18071 5.11617 4.27639 5.06406 4.37615 5.06406C4.47591 5.06406 4.57159 5.11617 4.64213 5.20893L5.09541 5.80993L6.35787 4.14488C6.42841 4.05211 6.52409 4 6.62385 4C6.72361 4 6.81929 4.05211 6.88983 4.14488C6.96037 4.23764 7 4.36345 7 4.49464C7 4.62582 6.96037 4.75163 6.88983 4.8444L5.36139 6.85428C5.32657 6.90046 5.28513 6.9371 5.23948 6.96211C5.19383 6.98712 5.14487 7 5.09541 7C5.04596 7 4.997 6.98712 4.95134 6.96211Z" fill="white"/>
<path d="M4.95134 10.9621C4.90569 10.9371 4.86426 10.9005 4.82944 10.8543L4.11017 9.90845C4.03963 9.81569 4 9.68988 4 9.55869C4 9.42751 4.03963 9.3017 4.11017 9.20893C4.18071 9.11617 4.27639 9.06406 4.37615 9.06406C4.47591 9.06406 4.57159 9.11617 4.64213 9.20893L5.09541 9.80993L6.35787 8.14488C6.42841 8.05211 6.52409 8 6.62385 8C6.72361 8 6.81929 8.05211 6.88983 8.14488C6.96037 8.23764 7 8.36345 7 8.49464C7 8.62582 6.96037 8.75163 6.88983 8.8444L5.36139 10.8543C5.32657 10.9005 5.28513 10.9371 5.23948 10.9621C5.19383 10.9871 5.14487 11 5.09541 11C5.04596 11 4.997 10.9871 4.95134 10.9621Z" fill="white"/>
<path d="M4.95134 14.9621C4.90569 14.9371 4.86426 14.9005 4.82944 14.8543L4.11017 13.9085C4.03963 13.8157 4 13.6899 4 13.5587C4 13.4275 4.03963 13.3017 4.11017 13.2089C4.18071 13.1162 4.27639 13.0641 4.37615 13.0641C4.47591 13.0641 4.57159 13.1162 4.64213 13.2089L5.09541 13.8099L6.35787 12.1449C6.42841 12.0521 6.52409 12 6.62385 12C6.72361 12 6.81929 12.0521 6.88983 12.1449C6.96037 12.2376 7 12.3635 7 12.4946C7 12.6258 6.96037 12.7516 6.88983 12.8444L5.36139 14.8543C5.32657 14.9005 5.28513 14.9371 5.23948 14.9621C5.19383 14.9871 5.14487 15 5.09541 15C5.04596 15 4.997 14.9871 4.95134 14.9621Z" fill="white"/>
</svg>
