<svg width="16" height="16" viewBox="0 0 16 16" fill="none" xmlns="http://www.w3.org/2000/svg">
<path d="M14.2256 8.74713C14.1032 8.61028 14.0357 8.43435 14.0357 8.2522C14.0357 8.07004 14.1032 7.89411 14.2256 7.75726L15.2028 6.67741C15.3104 6.55943 15.3773 6.41097 15.3938 6.25335C15.4102 6.09572 15.3754 5.93703 15.2944 5.80003L13.7676 3.20538C13.6873 3.06854 13.5652 2.96007 13.4185 2.89544C13.2718 2.83081 13.1081 2.81331 12.9507 2.84543L11.5155 3.13039C11.3329 3.16746 11.1428 3.13758 10.981 3.04641C10.8193 2.95523 10.6971 2.80905 10.6376 2.63546L10.1719 1.26315C10.1207 1.1142 10.0231 0.984834 9.893 0.89333C9.76286 0.801825 9.60674 0.752811 9.44669 0.753217H6.39308C6.22661 0.744682 6.06187 0.789907 5.92402 0.881985C5.78617 0.974063 5.6828 1.10793 5.62968 1.26315L5.20217 2.63546C5.14263 2.80905 5.02046 2.95523 4.85873 3.04641C4.69699 3.13758 4.50688 3.16746 4.32426 3.13039L2.85089 2.84543C2.70169 2.82472 2.54958 2.84785 2.41373 2.9119C2.27788 2.97596 2.16436 3.07807 2.08749 3.20538L0.560683 5.80003C0.477594 5.9355 0.440235 6.09331 0.453946 6.25089C0.467657 6.40847 0.531736 6.55776 0.637023 6.67741L1.60654 7.75726C1.72893 7.89411 1.79643 8.07004 1.79643 8.2522C1.79643 8.43435 1.72893 8.61028 1.60654 8.74713L0.637023 9.82698C0.531736 9.94664 0.467657 10.0959 0.453946 10.2535C0.440235 10.4111 0.477594 10.5689 0.560683 10.7044L2.08749 13.299C2.16772 13.4359 2.28988 13.5443 2.43656 13.609C2.58323 13.6736 2.74693 13.6911 2.90433 13.659L4.33953 13.374C4.52215 13.3369 4.71226 13.3668 4.874 13.458C5.03573 13.5492 5.1579 13.6953 5.21744 13.8689L5.68312 15.2412C5.73623 15.3965 5.83961 15.5303 5.97746 15.6224C6.11531 15.7145 6.28005 15.7597 6.44652 15.7512H9.50013C9.66018 15.7516 9.8163 15.7026 9.94644 15.6111C10.0766 15.5196 10.1742 15.3902 10.2254 15.2412L10.691 13.8689C10.7506 13.6953 10.8728 13.5492 11.0345 13.458C11.1962 13.3668 11.3863 13.3369 11.569 13.374L13.0042 13.659C13.1615 13.6911 13.3253 13.6736 13.4719 13.609C13.6186 13.5443 13.7408 13.4359 13.821 13.299L15.3478 10.7044C15.4289 10.5674 15.4636 10.4087 15.4472 10.251C15.4307 10.0934 15.3639 9.94497 15.2562 9.82698L14.2256 8.74713ZM13.0881 9.75199L13.6988 10.4269L12.7217 12.0917L11.8209 11.9117C11.2711 11.8013 10.6991 11.893 10.2136 12.1695C9.7281 12.446 9.36283 12.8879 9.18714 13.4115L8.89704 14.2514H6.94273L6.66791 13.3965C6.49221 12.873 6.12695 12.431 5.64144 12.1545C5.15593 11.878 4.58399 11.7863 4.03417 11.8967L3.13335 12.0767L2.14093 10.4194L2.75165 9.74449C3.12721 9.33203 3.33484 8.79807 3.33484 8.2447C3.33484 7.69132 3.12721 7.15736 2.75165 6.7449L2.14093 6.06999L3.11808 4.42022L4.0189 4.60019C4.56872 4.7106 5.14066 4.61885 5.62617 4.34238C6.11168 4.0659 6.47695 3.62395 6.65264 3.1004L6.94273 2.25301H8.89704L9.18714 3.1079C9.36283 3.63144 9.7281 4.0734 10.2136 4.34988C10.6991 4.62635 11.2711 4.71809 11.8209 4.60769L12.7217 4.42772L13.6988 6.09249L13.0881 6.7674C12.7168 7.17891 12.5117 7.70978 12.5117 8.2597C12.5117 8.80961 12.7168 9.34048 13.0881 9.75199ZM7.91989 5.2526C7.31594 5.2526 6.72556 5.42853 6.22339 5.75813C5.72123 6.08773 5.32984 6.5562 5.09872 7.1043C4.8676 7.65241 4.80713 8.25552 4.92495 8.83739C5.04277 9.41925 5.3336 9.95373 5.76066 10.3732C6.18771 10.7927 6.73182 11.0784 7.32416 11.1942C7.9165 11.3099 8.53048 11.2505 9.08845 11.0235C9.64643 10.7964 10.1233 10.412 10.4589 9.91868C10.7944 9.4254 10.9735 8.84546 10.9735 8.2522C10.9735 7.45666 10.6518 6.6937 10.0791 6.13117C9.50645 5.56863 8.72976 5.2526 7.91989 5.2526ZM7.91989 9.75199C7.61791 9.75199 7.32272 9.66403 7.07164 9.49923C6.82056 9.33443 6.62486 9.1002 6.5093 8.82614C6.39374 8.55209 6.36351 8.25053 6.42242 7.9596C6.48133 7.66867 6.62675 7.40143 6.84027 7.19168C7.0538 6.98193 7.32585 6.83909 7.62202 6.78122C7.91819 6.72335 8.22518 6.75305 8.50417 6.86657C8.78316 6.98008 9.02161 7.17232 9.18938 7.41896C9.35715 7.6656 9.44669 7.95557 9.44669 8.2522C9.44669 8.64997 9.28583 9.03145 8.9995 9.31271C8.71317 9.59398 8.32482 9.75199 7.91989 9.75199Z" fill="white"/>
</svg>
