<svg width="15" height="16" viewBox="0 0 15 16" fill="none" xmlns="http://www.w3.org/2000/svg">
<path d="M10.2851 8.28004C11.024 7.70187 11.5633 6.90902 11.8281 6.0118C12.0928 5.11458 12.0698 4.15761 11.7622 3.27402C11.4545 2.39044 10.8777 1.62417 10.1118 1.08183C9.34586 0.53949 8.42903 0.248047 7.48882 0.248047C6.54861 0.248047 5.63178 0.53949 4.86588 1.08183C4.09998 1.62417 3.52309 2.39044 3.21548 3.27402C2.90787 4.15761 2.88483 5.11458 3.14957 6.0118C3.41431 6.90902 3.95366 7.70187 4.69258 8.28004C3.42642 8.78453 2.32165 9.62128 1.49604 10.7011C0.670442 11.7809 0.154958 13.0633 0.00454622 14.4115C-0.00634133 14.5099 0.00237294 14.6095 0.0301913 14.7046C0.0580097 14.7997 0.104387 14.8884 0.166676 14.9657C0.292475 15.1217 0.475448 15.2217 0.675342 15.2435C0.875237 15.2654 1.07568 15.2074 1.23257 15.0823C1.38947 14.9572 1.48996 14.7752 1.51195 14.5764C1.67745 13.1111 2.37998 11.7579 3.48531 10.7752C4.59064 9.79249 6.02128 9.24925 7.5039 9.24925C8.98651 9.24925 10.4171 9.79249 11.5225 10.7752C12.6278 11.7579 13.3303 13.1111 13.4958 14.5764C13.5163 14.7606 13.6047 14.9307 13.7439 15.0539C13.8831 15.1771 14.0632 15.2446 14.2495 15.2435H14.3324C14.53 15.2209 14.7106 15.1216 14.8348 14.9671C14.9591 14.8127 15.0169 14.6157 14.9957 14.419C14.8446 13.0669 14.3263 11.7813 13.4965 10.6998C12.6666 9.61833 11.5565 8.78186 10.2851 8.28004ZM7.48882 7.74784C6.89255 7.74784 6.30966 7.572 5.81388 7.24254C5.3181 6.91309 4.93168 6.44482 4.7035 5.89696C4.47531 5.3491 4.41561 4.74625 4.53194 4.16464C4.64826 3.58303 4.9354 3.04879 5.35703 2.62948C5.77866 2.21016 6.31584 1.9246 6.90066 1.80891C7.48548 1.69322 8.09166 1.7526 8.64254 1.97953C9.19343 2.20646 9.66428 2.59076 9.99555 3.08382C10.3268 3.57689 10.5036 4.15657 10.5036 4.74957C10.5036 5.54476 10.186 6.30739 9.62062 6.86967C9.05523 7.43196 8.2884 7.74784 7.48882 7.74784Z" fill="white"/>
</svg>
